<svg xmlns="http://www.w3.org/2000/svg" version="1.1" xmlns:xlink="http://www.w3.org/1999/xlink" xmlns:svgjs="http://svgjs.dev/svgjs" width="1000" height="1000" viewBox="0 0 1000 1000"><rect width="1000" height="1000" fill="#ffffff"></rect><g transform="matrix(0.7,0,0,0.7,149.57575794786942,434.5171268482263)"><svg viewBox="0 0 396 74" data-background-color="#ffffff" preserveAspectRatio="xMidYMid meet" height="186" width="1000" xmlns="http://www.w3.org/2000/svg" xmlns:xlink="http://www.w3.org/1999/xlink"><defs></defs><g id="tight-bounds" transform="matrix(1,0,0,1,0.23999978949103706,0.21760839655340192)"><svg viewBox="0 0 395.52 73.56477670673829" height="73.56477670673829" width="395.52"><g><svg viewBox="0 0 510.2396859414847 94.90207464401698" height="73.56477670673829" width="395.52"><g transform="matrix(1,0,0,1,0,13.115988608543596)"><svg viewBox="0 0 395.52 68.67009742692979" height="68.67009742692979" width="395.52"><g><svg viewBox="0 0 395.52 68.67009742692979" height="68.67009742692979" width="395.52"><g><svg viewBox="0 0 395.52 68.67009742692979" height="68.67009742692979" width="395.52"><g transform="matrix(1,0,0,1,0,0)"><svg width="395.52" viewBox="3.8499999046325684 -34.349998474121094 200.13999938964844 34.75" height="68.67009742692979" data-palette-color="#398378"><path d="M14.05 0L14.05 0 3.85 0 3.85-33.7 13.85-33.7Q21.3-33.7 26.08-29.08 30.85-24.45 30.85-17.1L30.85-17.1Q30.85-9.8 26.43-4.9 22 0 14.05 0ZM13.8-30.1L13.8-30.1 7.95-30.1 7.95-3.55 14-3.55Q20.25-3.55 23.45-7.43 26.65-11.3 26.65-17.1L26.65-17.1Q26.65-22.6 23.08-26.35 19.5-30.1 13.8-30.1ZM65.7-17L65.7-17Q65.7-9.05 61.62-4.33 57.55 0.4 50.6 0.4L50.6 0.4Q43.75 0.4 39.6-4.35 35.45-9.1 35.45-17L35.45-17Q35.45-24.95 39.52-29.65 43.6-34.35 50.55-34.35L50.55-34.35Q57.65-34.35 61.67-29.68 65.7-25 65.7-17ZM39.7-17L39.7-17Q39.7-10.75 42.67-7.1 45.65-3.45 50.6-3.45L50.6-3.45Q55.75-3.45 58.57-7.05 61.4-10.65 61.4-17 61.4-23.35 58.55-26.95 55.7-30.55 50.55-30.55L50.55-30.55Q45.45-30.55 42.57-26.93 39.7-23.3 39.7-17ZM90.3-3.65L90.3 0 71.9 0 71.9-33.7 75.95-33.7 75.95-3.65 90.3-3.65ZM102.79-14.2L102.79-14.2 102.14-12.3 114.09-12.3 113.44-14.25 108.19-30.45Q107.59-28.3 102.79-14.2ZM100.99-8.85L97.99 0 93.64 0 105.39-33.7 110.99-33.7 122.54 0 118.19 0 115.24-8.85 100.99-8.85ZM136.84-30.2L136.84-30.2 132.19-30.2 132.19-16.75 137.29-16.75Q140.74-16.75 142.57-18.63 144.39-20.5 144.39-23.45L144.39-23.45Q144.39-30.2 136.84-30.2ZM137.44-13.3L137.04-13.3 132.19-13.3 132.19 0 128.14 0 128.14-33.7 136.59-33.7Q142.44-33.7 145.47-30.95 148.49-28.2 148.49-23.35L148.49-23.35Q148.39-19.85 146.64-17.4 144.89-14.95 141.69-13.95L141.69-13.95 150.54 0 145.69 0 137.44-13.3ZM174.34-3.55L174.34 0 155.54 0 155.54-33.7 174.09-33.7 174.09-30.15 159.59-30.15 159.59-18.6 172.39-18.6 172.39-15.05 159.59-15.05 159.59-3.55 174.34-3.55ZM190.44-16.65L203.99 0 198.74 0 185.44-16.65 198.29-33.7 203.29-33.7 190.44-16.65ZM184.64-33.7L184.64 0 180.59 0 180.59-33.7 184.64-33.7Z" opacity="1" transform="matrix(1,0,0,1,0,0)" fill="#000000" class="undefined-text-0" data-fill-palette-color="primary" id="text-0"></path></svg></g></svg></g></svg></g></svg></g><g transform="matrix(1,0,0,1,411.7313619201599,0)"><svg viewBox="0 0 98.50832402132488 94.90207464401698" height="94.90207464401698" width="98.50832402132488"><g><svg xmlns="http://www.w3.org/2000/svg" xmlns:xlink="http://www.w3.org/1999/xlink" version="1.1" x="0" y="0" viewBox="0 1.1999998092651367 64.97877502441406 62.59999465942383" enable-background="new 0 0 65 65" xml:space="preserve" height="94.90207464401698" width="98.50832402132488" class="icon-icon-0" data-fill-palette-color="accent" id="icon-0"><g fill="#398378" data-fill-palette-color="accent"><path d="M27.3 20.8c1.7 2 4.2 3.2 6.9 3.2 5 0 9-4.1 9-9s-4.1-9-9-9c-0.4 0-0.7 0-1.1 0.1l-4.9-4.9L6.8 3.8V1.2H0v1.5h5.3V4v13.1 1.1H1.1v1.5h5.7v-2.6h1.2l1.4 1.5c1.2 1.4 3 2.2 4.9 2.2H27.3zM41.7 15c0 4.2-3.4 7.5-7.5 7.5-1.8 0-3.4-0.6-4.8-1.7h2v-0.8c0-2.7-2.1-4.9-4.8-5.1 0-4.1 3.4-7.5 7.5-7.5C38.3 7.4 41.7 10.8 41.7 15zM25.1 14.9h-1.8c-0.9 0-1.7-0.3-2.3-1-0.2-0.2-0.3-0.4-0.3-0.7 0-0.2 0.1-0.5 0.3-0.7l4.6-4.6L27 9.5C25.9 11 25.2 12.8 25.1 14.9zM10.6 17.6l-1.8-2H6.8V5.3l20.9-2.6 3.7 3.7c-1.3 0.4-2.4 1.1-3.3 2l-2.4-2.4L20 11.5c-0.5 0.5-0.7 1.1-0.7 1.7 0 0.6 0.3 1.3 0.7 1.7 0.9 0.9 2.1 1.4 3.4 1.4h2.9c1.8 0 3.3 1.3 3.6 2.9H14.3C12.9 19.3 11.5 18.7 10.6 17.6z" fill="#000000" data-fill-palette-color="accent"></path><path d="M33.2 17.4c-0.2-0.2-0.3-0.4-0.3-0.7h-1.5c0 0.7 0.3 1.3 0.9 1.8 0.3 0.3 0.7 0.5 1.2 0.6v1.2h1.5v-1.2c0.4-0.1 0.8-0.3 1.2-0.6 0.5-0.5 0.9-1.1 0.9-1.8 0-0.7-0.3-1.3-0.8-1.8-0.5-0.4-1.2-0.7-1.9-0.7-0.4 0-0.7-0.1-0.9-0.3-0.2-0.2-0.3-0.4-0.3-0.7 0-0.2 0.1-0.5 0.3-0.7 0.5-0.4 1.4-0.4 1.9 0 0.2 0.2 0.3 0.4 0.3 0.7h1.5c0-0.7-0.3-1.3-0.8-1.8-0.3-0.3-0.7-0.5-1.2-0.6V9.7h-1.5v1.2c-0.4 0.1-0.8 0.3-1.2 0.6-0.5 0.5-0.9 1.1-0.9 1.8s0.3 1.3 0.9 1.8c0.5 0.4 1.2 0.7 1.9 0.7 0.4 0 0.7 0.1 0.9 0.3 0.2 0.2 0.3 0.4 0.3 0.7 0 0.2-0.1 0.5-0.3 0.7C34.6 17.8 33.7 17.8 33.2 17.4z" fill="#000000" data-fill-palette-color="accent"></path><path d="M23.4 39.5L23 38.1c-0.1 0-1.9 0.5-2.6 2.6l1.4 0.4C22.3 39.9 23.4 39.5 23.4 39.5l-0.2-0.7L23.4 39.5z" fill="#000000" data-fill-palette-color="accent"></path><path d="M64.7 44.7c-0.7-1.6-2.5-2.4-4.1-1.8-1.2 0.5-1.8 1.8-1.3 3l1.4-0.6c-0.2-0.4 0-0.9 0.5-1.1 0.9-0.3 1.8 0.1 2.2 0.9 0.3 0.7 0.3 1.6 0 2.3-0.3 0.7-0.9 1.3-1.6 1.6-2.5 1-5.4-0.2-6.5-2.7 0-0.1 0-0.2 0-0.3 0-5.5-1.5-8-4.1-10.6-0.5-0.6-1.2-1-1.8-1.5l0.3-4.4c0-0.3-0.1-0.6-0.4-0.8l-0.5-0.2-3.7 2.9c-2.9-1.2-6.2-1.9-9.6-1.9-3.6 0-7 0.7-10 2.1L22 29.1c-0.3-0.2-0.6-0.2-0.9-0.1l-0.5 0.3 0.3 4.9c-1.5 1.1-2.7 2.5-3.6 4.2l0 0c-0.2 0.4-0.4 0.7-0.6 1.1-0.4 0.6-0.9 0.9-1.5 0.9h-2.1c-1.2 0-2.1 1-2.1 2.1v2.1c0 1.2 1 2.1 2.1 2.1 1.2 0 2.3 1.2 2.9 3.1 0 0.1 0.1 0.2 0.1 0.3 0.7 2.1 1.9 4.1 3.5 5.7 0.5 0.5 1 0.9 1.5 1.3l0.2 0.2c0.6 0.5 2.3 2 2.5 3.8 0.3 2.6 2 2.7 3.1 2.7l0.1 0c0.1 0 0.1 0 0.2 0 1.2 0 3-0.5 3.6-3.5h9c0.2 1.1 0.6 2 1.2 2.6 0.6 0.6 1.4 0.9 2.3 0.9 0.1 0 0.1 0 0.2 0l0.1 0c1.1 0 2.8-0.1 3.1-2.7 0.3-2.1 2.5-3.7 2.5-3.8l0.2-0.2c2.8-2.1 4.7-5.1 5.3-8.4 1.2 1.4 3 2.2 4.9 2.2 0.8 0 1.6-0.2 2.4-0.5 1.1-0.5 2-1.3 2.5-2.4C65.1 47 65.1 45.8 64.7 44.7zM48.7 56l-0.2 0.1c-0.1 0.1-2.8 2.1-3.1 4.8-0.2 1.3-0.6 1.3-1.6 1.4l-0.2 0c-0.6 0-1-0.1-1.4-0.5-0.6-0.6-1-1.8-1-3.6h-1.5c0 0.2 0 0.4 0 0.6H31c0-0.2 0-0.4 0-0.6h-1.5c0 0.3 0 0.6 0 0.9-0.2 3.2-1.8 3.2-2.3 3.1l-0.2 0c-1.1 0-1.5 0-1.6-1.4-0.3-2.7-3-4.7-3.1-4.8L22 56c-0.5-0.4-0.9-0.7-1.3-1.2-1.4-1.4-2.5-3.2-3.1-5.1 0-0.1-0.1-0.3-0.1-0.4-0.8-2.5-2.5-4.1-4.3-4.1-0.3 0-0.6-0.3-0.6-0.6v-2.1c0-0.3 0.3-0.6 0.6-0.6h2.1c1 0 2-0.6 2.7-1.6 0.1-0.2 0.3-0.4 0.4-0.6 0-0.1 0.1-0.2 0.1-0.2 0.1-0.1 0.1-0.3 0.2-0.4 0.6-1.1 1.5-2.1 2.4-3l0 0.4 1.5-0.1-0.4-5.1 4.4 3.4 0.9-1.2-1-0.8c2.7-1.1 5.6-1.6 8.7-1.6 2.9 0 5.7 0.5 8.2 1.4l-0.9 0.7 0.9 1.2L48 31l-0.4 5.1 1.5 0.1 0-0.5c0.3 0.2 0.6 0.5 0.9 0.8 2.4 2.4 3.6 4.6 3.6 9.6C53.6 50 51.8 53.7 48.7 56z" fill="#000000" data-fill-palette-color="accent"></path><path d="M32.1 33.9l0.3 1.5c0 0 4.9-1 8.5 0.7l0.6-1.4C37.5 32.8 32.3 33.9 32.1 33.9z" fill="#000000" data-fill-palette-color="accent"></path></g></svg></g></svg></g></svg></g></svg><rect width="395.52" height="73.56477670673829" fill="none" stroke="none" visibility="hidden"></rect></g></svg></g></svg>